<?xml version="1.0" standalone="no"?>
<!DOCTYPE svg PUBLIC "-//W3C//DTD SVG 20010904//EN"
 "http://www.w3.org/TR/2001/REC-SVG-20010904/DTD/svg10.dtd">
<svg version="1.0" xmlns="http://www.w3.org/2000/svg"
 width="512.000000pt" height="512.000000pt" viewBox="0 0 512.000000 512.000000"
 preserveAspectRatio="xMidYMid meet">

<g transform="translate(0.000000,512.000000) scale(0.100000,-0.100000)"
fill="#000000" stroke="none">
<path d="M2375 4951 c-271 -59 -454 -287 -455 -565 0 -139 -45 -248 -158 -388
-116 -145 -172 -251 -210 -399 l-19 -74 -64 -2 c-312 -12 -547 -136 -699 -370
-89 -136 -125 -259 -125 -433 0 -231 76 -411 240 -572 l69 -68 -373 0 -372 0
-24 -25 c-29 -28 -32 -73 -14 -233 89 -828 800 -1499 1736 -1639 85 -12 179
-17 338 -17 241 0 342 11 561 65 120 29 122 29 200 14 44 -8 149 -21 234 -30
85 -8 196 -24 245 -35 106 -23 214 -25 307 -5 60 12 78 12 150 -2 98 -18 238
-13 338 13 455 118 712 609 550 1049 -59 158 -203 330 -346 413 -65 38 -204
92 -236 92 -11 0 -14 21 -13 93 l0 93 51 23 c74 32 116 71 155 143 31 57 34
70 34 148 0 79 -3 90 -36 150 -39 71 -104 128 -169 150 l-39 13 6 62 c12 126
-51 241 -167 304 -60 33 -71 36 -150 36 -90 0 -131 -15 -207 -71 l-32 -24 -48
33 c-26 19 -62 39 -79 46 l-31 12 13 72 c17 88 76 214 135 286 24 29 48 60 54
67 7 10 -3 27 -40 64 -27 27 -55 50 -62 50 -17 0 -114 -123 -154 -196 l-34
-61 -1 136 c-1 249 -76 444 -244 636 -100 115 -150 241 -150 381 0 85 -29 207
-67 277 -36 66 -130 166 -194 208 -82 52 -172 80 -274 84 -49 2 -108 0 -130
-4z m270 -189 c84 -40 157 -113 196 -197 27 -56 32 -81 39 -194 14 -204 57
-311 187 -468 37 -45 83 -107 102 -137 90 -149 130 -364 100 -532 -20 -113
-71 -248 -115 -302 l-19 -23 -45 23 c-66 33 -195 32 -265 -2 -64 -31 -124 -91
-155 -155 -20 -41 -25 -65 -25 -136 0 -86 0 -87 -29 -97 -16 -6 -33 -9 -38 -6
-19 12 -158 310 -158 339 0 3 22 5 49 5 225 0 419 149 476 365 65 251 -94 513
-352 580 -248 65 -511 -94 -578 -350 -8 -32 -16 -59 -17 -61 -2 -1 -34 -3 -73
-5 -60 -2 -79 2 -135 28 -36 17 -73 33 -83 37 -23 7 -17 47 25 163 34 94 83
175 169 277 65 76 139 216 159 301 6 28 16 103 20 168 7 99 13 128 38 182 39
81 97 144 171 183 78 42 122 52 213 48 61 -3 92 -11 143 -34z m-30 -1113 c237
-112 246 -441 15 -568 -60 -33 -71 -36 -152 -36 -64 0 -91 4 -102 15 -14 14
-36 128 -51 274 -9 83 -38 111 -106 103 -53 -6 -56 -3 -37 40 38 89 108 154
198 187 63 23 170 16 235 -15z m-1255 -516 l0 -218 -155 155 -156 155 23 19
c54 44 203 104 261 105 l27 1 0 -217z m271 197 c35 -11 87 -33 114 -48 47 -26
50 -30 47 -62 -3 -30 -23 -55 -138 -170 l-134 -135 0 218 0 217 24 0 c13 0 52
-9 87 -20z m544 -107 c30 -228 96 -440 201 -651 l76 -152 -23 -48 c-18 -37
-23 -64 -23 -132 -1 -79 2 -89 35 -150 38 -70 104 -128 167 -149 l37 -13 0
-86 c1 -102 24 -161 90 -227 66 -66 125 -90 225 -89 61 0 94 5 117 17 47 25
47 22 -3 -30 -57 -59 -118 -148 -151 -221 -14 -31 -27 -58 -28 -60 -3 -4 -94
50 -169 100 -150 102 -332 275 -438 419 -256 346 -382 752 -365 1174 5 120 30
311 42 323 2 2 43 7 92 11 48 5 93 9 100 10 7 0 14 -19 18 -46z m-1146 -421
c-117 -1 -214 0 -217 3 -19 19 48 205 99 277 l22 30 154 -154 153 -153 -211
-3z m2334 163 c-3 -9 -8 -14 -10 -11 -3 3 -2 9 2 15 9 16 15 13 8 -4z m-1607
-192 c-3 -3 -35 -2 -72 2 l-67 7 69 69 69 70 3 -72 c2 -39 1 -74 -2 -76z
m1268 13 c76 -32 116 -136 81 -209 -18 -38 -106 -97 -145 -97 -39 0 -131 61
-146 96 -56 135 76 266 210 210z m504 -13 c42 -31 64 -68 69 -115 6 -54 -17
-114 -49 -127 -13 -6 -36 -19 -53 -30 -41 -28 -66 -26 -131 11 -40 22 -61 41
-70 64 -34 82 1 173 81 210 40 19 119 12 153 -13z m480 0 c42 -31 64 -68 69
-115 6 -54 -17 -114 -49 -127 -13 -6 -36 -19 -53 -30 -41 -28 -66 -26 -131 11
-40 22 -61 41 -70 64 -34 82 1 173 81 210 40 19 119 12 153 -13z m-2918 -288
l-155 -156 -19 23 c-44 55 -106 209 -106 265 l0 23 217 0 218 0 -155 -155z
m606 129 l82 -7 6 -58 c10 -83 59 -279 96 -379 106 -289 312 -596 531 -791
108 -97 247 -199 352 -259 l92 -52 0 -126 c0 -104 5 -140 24 -202 31 -99 79
-193 141 -274 56 -73 56 -73 -47 -51 -280 60 -551 190 -774 371 -81 66 -239
228 -302 311 -156 204 -274 459 -331 714 -55 252 -60 477 -14 742 13 77 1 72
144 61z m-341 -522 c-9 -10 -114 16 -168 41 -29 13 -72 36 -96 51 l-44 28 154
154 154 154 3 -211 c1 -117 0 -214 -3 -217z m1429 294 c44 -18 86 -75 93 -124
20 -152 -160 -241 -268 -133 -124 124 13 325 175 257z m479 0 c103 -43 128
-177 48 -257 -65 -65 -157 -65 -222 0 -124 123 13 325 174 257z m481 0 c46
-19 87 -77 93 -130 6 -51 -19 -113 -51 -126 -12 -5 -34 -18 -51 -29 -53 -37
-128 -21 -178 38 -106 127 33 311 187 247z m504 -13 c51 -38 67 -70 67 -133 0
-44 -5 -66 -21 -86 -31 -42 -67 -65 -111 -71 -54 -7 -149 45 -169 93 -34 82 1
173 81 210 40 19 119 12 153 -13z m-1214 -403 c66 -38 91 -81 83 -148 -5 -48
-27 -84 -71 -116 -39 -29 -133 -29 -172 0 -44 32 -66 68 -71 116 -8 67 15 109
78 146 68 39 87 39 153 2z m482 -2 c41 -23 60 -41 71 -67 16 -38 13 -115 -5
-133 -5 -5 -39 -16 -74 -23 -34 -7 -84 -18 -110 -26 -43 -12 -49 -11 -69 7
-48 43 -62 124 -31 182 19 35 103 91 140 91 12 1 48 -13 78 -31z m467 18 c70
-29 109 -110 91 -185 l-9 -36 -85 -12 c-88 -12 -100 -11 -100 13 0 8 -13 55
-30 106 -16 51 -28 93 -27 94 1 2 16 10 32 18 37 20 85 20 128 2z m-3484 -151
c27 -193 120 -419 241 -585 78 -106 251 -277 355 -351 279 -198 596 -314 949
-348 60 -6 134 -11 163 -11 47 0 66 -7 146 -54 51 -30 126 -69 167 -87 41 -18
79 -36 83 -40 17 -14 -209 -39 -359 -39 -765 -1 -1460 401 -1772 1026 -68 135
-131 360 -145 517 l-6 57 83 0 83 0 12 -85z m885 63 c3 -13 10 -50 17 -83 11
-57 60 -241 74 -277 6 -16 0 -18 -54 -18 l-61 0 0 -80 0 -80 80 0 80 0 0 32
c0 27 7 18 44 -59 92 -189 209 -353 368 -519 l99 -102 -43 5 c-85 10 -273 55
-371 89 -340 119 -640 354 -810 634 -74 123 -133 287 -152 428 l-7 52 366 0
366 0 4 -22z m2362 -310 c4 -5 9 -56 12 -114 l5 -106 -32 16 c-17 9 -37 25
-44 36 -10 17 -23 20 -89 20 -91 0 -94 -4 -52 -88 62 -124 249 -184 415 -132
86 26 142 69 173 132 42 84 39 88 -52 88 -66 0 -79 -3 -89 -20 -7 -11 -26 -26
-42 -34 l-29 -16 -4 103 c-2 59 1 105 6 109 6 4 43 10 84 14 202 19 377 -44
521 -186 253 -251 254 -649 1 -901 -160 -158 -365 -218 -592 -172 -69 13 -89
14 -127 4 -26 -7 -84 -15 -131 -18 -290 -17 -547 165 -646 457 -15 42 -19 84
-19 180 0 139 10 182 73 305 52 102 164 210 273 264 46 23 113 48 149 56 66
15 222 16 236 3z"/>
<path d="M2240 4624 c0 -47 28 -102 75 -149 73 -74 151 -92 248 -59 77 26 157
132 157 208 0 13 -12 16 -77 16 -78 0 -78 0 -93 -33 -18 -38 -58 -55 -97 -41
-16 5 -34 23 -43 41 -15 33 -15 33 -92 33 -66 0 -78 -3 -78 -16z"/>
<path d="M960 1680 l0 -80 80 0 80 0 0 80 0 80 -80 0 -80 0 0 -80z"/>
</g>
</svg>
