<?xml version="1.0" standalone="no"?>
<!DOCTYPE svg PUBLIC "-//W3C//DTD SVG 20010904//EN"
 "http://www.w3.org/TR/2001/REC-SVG-20010904/DTD/svg10.dtd">
<svg version="1.0" xmlns="http://www.w3.org/2000/svg"
 width="512.000000pt" height="512.000000pt" viewBox="0 0 512.000000 512.000000"
 preserveAspectRatio="xMidYMid meet">

<g transform="translate(0.000000,512.000000) scale(0.100000,-0.100000)"
fill="#000000" stroke="none">
<path d="M655 5111 c-11 -5 -29 -19 -40 -31 -18 -20 -20 -39 -23 -224 l-3
-202 -87 86 c-118 116 -175 153 -225 147 -48 -7 -75 -30 -83 -74 -9 -50 5 -73
95 -148 44 -37 105 -97 136 -134 67 -78 147 -233 149 -286 1 -36 0 -37 -59
-60 -233 -88 -428 -301 -491 -535 -13 -45 -18 -101 -18 -185 1 -136 22 -256
105 -589 27 -110 49 -202 49 -206 0 -4 -23 -10 -52 -12 -42 -4 -57 -11 -80
-37 l-28 -31 0 -1260 0 -1260 29 -32 29 -33 2496 -3 2496 -2 32 29 33 29 0
1272 0 1272 -33 29 -32 29 -221 0 -221 0 61 46 c147 110 231 283 231 474 0
101 -17 170 -65 267 -50 101 -150 204 -253 259 -2 1 6 32 17 69 32 101 36 187
17 286 -44 217 -186 380 -395 452 -70 24 -101 29 -180 29 -102 1 -194 -18
-261 -52 l-39 -20 -48 29 c-89 55 -186 84 -315 96 l-66 6 -22 52 c-73 170
-227 323 -404 401 -346 153 -773 16 -964 -310 l-37 -64 -85 0 c-134 0 -258
-36 -385 -108 -88 -51 -232 -200 -278 -290 -34 -64 -41 -72 -60 -66 -38 11
-41 20 -29 84 25 138 104 241 213 281 71 26 99 57 99 109 0 42 -33 84 -76 94
-38 10 -124 -19 -190 -63 l-59 -40 -5 187 c-3 103 -9 195 -14 205 -18 38 -58
47 -203 46 -76 0 -147 -4 -158 -8z m175 -526 c0 -328 0 -335 -20 -335 -20 0
-20 7 -20 335 0 328 0 335 20 335 20 0 20 -7 20 -335z m1849 324 c96 -16 218
-78 293 -148 57 -53 139 -169 138 -196 -1 -5 -37 -28 -82 -49 -170 -82 -310
-260 -357 -451 -42 -170 -14 -255 83 -255 60 0 86 32 97 120 17 140 60 231
149 321 93 94 211 142 345 142 119 -1 196 -27 304 -104 33 -24 66 -39 83 -39
16 0 61 18 101 39 250 138 543 -2 588 -280 16 -99 0 -165 -75 -304 -9 -16 -16
-39 -16 -50 0 -37 37 -82 77 -95 118 -39 208 -114 258 -215 27 -55 30 -69 30
-165 0 -97 -2 -110 -31 -170 -74 -154 -229 -240 -404 -225 -83 7 -107 -5 -143
-73 l-28 -52 -60 0 c-45 0 -58 3 -53 13 4 6 94 136 199 287 106 151 197 285
203 297 18 32 14 77 -7 105 -27 34 -320 226 -356 233 -52 10 -87 -22 -165
-154 -40 -67 -74 -121 -75 -121 -2 0 32 180 91 476 41 207 35 216 -177 259
-159 33 -183 32 -218 -3 -23 -22 -31 -46 -46 -125 l-19 -97 -118 0 c-143 0
-182 -12 -203 -64 -12 -28 -15 -92 -15 -313 l0 -278 -28 80 c-80 229 -271 405
-514 471 -86 24 -269 24 -358 0 -216 -58 -370 -180 -482 -381 -21 -37 -27 -42
-21 -20 4 17 8 80 8 140 -1 123 -17 200 -66 306 l-31 66 22 43 c68 134 212
208 374 193 83 -7 105 6 146 87 17 33 53 85 80 115 53 58 61 89 39 139 -15 32
-72 60 -106 51 -32 -8 -115 -86 -150 -140 -26 -42 -28 -43 -95 -50 -156 -15
-276 -73 -379 -183 l-70 -75 -27 22 c-15 11 -50 37 -79 57 l-52 36 27 51 c15
28 61 85 102 127 126 130 247 174 458 168 91 -2 123 0 136 11 9 8 38 55 63
104 123 237 357 358 612 316z m-1634 -893 c193 -61 346 -206 407 -384 24 -71
31 -217 15 -294 l-8 -37 -219 -3 -220 -3 -26 -27 c-37 -37 -37 -99 0 -136 26
-27 27 -27 213 -32 165 -4 184 -7 169 -20 -71 -58 -165 -227 -193 -348 l-17
-72 -397 0 -397 0 -21 78 c-87 326 -142 597 -144 712 l-2 85 277 5 278 5 27
28 c38 38 38 96 0 135 l-27 27 -241 5 -240 5 29 40 c95 130 249 224 420 255
83 15 229 4 317 -24z m2625 -167 c0 -6 -30 -165 -67 -353 l-68 -341 -3 115
c-3 101 2 144 39 353 l43 237 28 0 c15 0 28 -5 28 -11z m-340 -704 c0 -391 -3
-485 -13 -485 -29 0 -41 144 -44 563 l-3 407 30 0 30 0 0 -485z m-834 381
c166 -44 316 -195 369 -371 l13 -43 -60 -11 c-86 -15 -160 -52 -224 -113 l-56
-53 -17 25 c-124 189 -325 311 -554 335 -37 4 -67 12 -67 17 0 6 30 40 68 77
73 72 160 121 258 146 68 17 189 13 270 -9z m1602 -211 c37 -25 50 -40 45 -49
-5 -8 -100 -147 -213 -309 l-205 -296 -42 0 -42 -1 6 33 c3 17 80 155 170 306
201 334 211 351 221 351 4 0 31 -16 60 -35z m-2085 -230 c158 -33 295 -141
365 -287 22 -45 43 -95 46 -110 l6 -28 -530 0 -530 0 6 28 c3 15 24 65 46 110
106 221 348 339 591 287z m965 -204 c20 -10 47 -30 59 -43 30 -32 63 -107 63
-145 l0 -33 -220 0 -220 0 0 33 c0 38 33 113 63 145 64 69 169 87 255 43z
m1942 -731 l0 -309 -461 -3 -461 -3 -29 -33 c-38 -42 -38 -82 0 -124 l29 -33
461 -3 461 -3 0 -309 0 -310 -1585 0 c-1710 0 -1627 2 -1655 -49 -13 -25 -13
-77 0 -102 28 -51 -55 -49 1655 -49 l1585 0 0 -310 0 -310 -2360 0 -2360 0 0
310 0 310 456 0 456 0 34 34 c46 46 46 86 0 132 l-34 34 -456 0 -456 0 0 310
0 310 1585 0 c1710 0 1627 -2 1655 49 13 25 13 77 0 102 -28 51 55 49 -1655
49 l-1585 0 0 310 0 310 2360 0 2360 0 0 -310z"/>
<path d="M2410 4567 c-38 -18 -63 -77 -50 -113 25 -65 82 -89 138 -60 37 19
52 44 52 86 0 42 -15 67 -50 85 -35 18 -57 19 -90 2z"/>
<path d="M694 3284 c-117 -57 -29 -227 89 -173 23 11 38 31 51 72 10 33 -20
86 -58 102 -43 18 -44 18 -82 -1z"/>
<path d="M588 2233 c-57 -36 -63 -100 -14 -149 50 -50 121 -42 152 17 23 45
17 78 -20 115 -38 38 -75 44 -118 17z"/>
<path d="M4428 2233 c-48 -30 -60 -84 -31 -133 52 -88 183 -49 183 56 0 16
-12 38 -34 60 -38 38 -75 44 -118 17z"/>
<path d="M3650 1827 c-38 -18 -63 -77 -50 -113 25 -65 82 -89 138 -60 37 19
52 44 52 86 0 42 -15 67 -50 85 -35 18 -57 19 -90 2z"/>
<path d="M588 1413 c-57 -36 -63 -100 -14 -149 50 -50 121 -42 152 17 23 45
17 78 -20 115 -38 38 -75 44 -118 17z"/>
<path d="M4428 1413 c-48 -30 -60 -84 -31 -133 52 -88 183 -49 183 56 0 16
-12 38 -34 60 -38 38 -75 44 -118 17z"/>
<path d="M1378 1005 c-34 -19 -48 -44 -48 -85 0 -42 15 -67 52 -86 79 -41 168
38 134 119 -7 18 -20 38 -29 45 -24 20 -79 24 -109 7z"/>
<path d="M588 593 c-57 -36 -63 -100 -14 -149 50 -50 121 -42 152 17 23 45 17
78 -20 115 -38 38 -75 44 -118 17z"/>
<path d="M4428 593 c-48 -30 -60 -84 -31 -133 52 -88 183 -49 183 56 0 16 -12
38 -34 60 -38 38 -75 44 -118 17z"/>
</g>
</svg>
