<?xml version="1.0" standalone="no"?>
<!DOCTYPE svg PUBLIC "-//W3C//DTD SVG 20010904//EN"
 "http://www.w3.org/TR/2001/REC-SVG-20010904/DTD/svg10.dtd">
<svg version="1.0" xmlns="http://www.w3.org/2000/svg"
 width="512.000000pt" height="512.000000pt" viewBox="0 0 512.000000 512.000000"
 preserveAspectRatio="xMidYMid meet">

<g transform="translate(0.000000,512.000000) scale(0.100000,-0.100000)"
fill="#000000" stroke="none">
<path d="M3005 4701 c-196 -54 -401 -172 -509 -292 -101 -112 -123 -286 -54
-427 l21 -44 -31 -30 -30 -31 -59 46 c-109 86 -257 140 -420 153 l-83 7 0 -80
0 -80 71 -7 c202 -18 350 -101 448 -248 23 -33 41 -64 41 -68 0 -4 -39 -15
-86 -24 -116 -23 -221 -59 -329 -114 -296 -148 -489 -365 -630 -709 0 -1 -41
7 -90 17 -50 10 -110 21 -135 25 l-45 6 -29 84 c-30 87 -98 205 -120 205 -13
0 -106 -91 -106 -103 0 -4 11 -24 25 -45 14 -21 34 -62 44 -92 l19 -54 -166
-42 c-205 -52 -391 -117 -414 -145 -20 -24 -23 -61 -7 -91 9 -17 5 -25 -33
-56 -135 -114 -229 -257 -274 -423 -24 -87 -25 -300 -2 -384 43 -158 109 -275
214 -379 71 -71 184 -147 262 -176 129 -49 159 -53 394 -57 l228 -5 11 -41
c48 -178 205 -319 385 -347 38 -6 467 -58 954 -115 487 -58 932 -112 990 -121
117 -18 228 -14 325 11 87 22 214 89 278 146 30 27 61 49 69 49 7 0 145 -32
306 -72 275 -68 294 -72 320 -58 22 13 35 38 74 150 54 157 57 182 23 215
l-24 25 110 0 c114 0 160 12 173 45 3 9 6 100 6 201 0 183 0 185 -25 209 -23
24 -30 25 -144 25 l-120 0 24 25 c34 33 31 58 -23 215 -60 173 -61 174 -196
141 -53 -12 -106 -25 -118 -28 -13 -2 4 11 37 29 171 95 281 265 300 466 7 65
9 70 41 87 49 26 137 123 168 183 86 170 68 376 -45 518 -24 30 -28 44 -23 68
3 16 6 64 6 106 -1 258 -214 471 -472 472 -42 0 -90 -3 -106 -6 -24 -5 -38 -1
-68 23 -142 113 -348 131 -518 45 -60 -31 -157 -119 -183 -168 -17 -32 -22
-34 -87 -41 -90 -8 -158 -29 -240 -72 l-67 -35 -28 20 c-129 91 -375 171 -573
187 l-85 7 -37 73 -36 73 39 38 c38 37 40 38 67 22 83 -49 202 -60 305 -28
113 35 197 114 297 279 137 229 183 451 117 563 -52 89 -176 119 -322 79z
m179 -157 c52 -52 -44 -324 -177 -499 -81 -107 -188 -151 -283 -115 -28 11
-27 11 171 210 l200 200 -58 57 -57 58 -200 -200 c-199 -198 -199 -199 -210
-171 -36 94 8 202 115 284 170 130 448 228 499 176z m1008 -972 c26 -11 69
-41 96 -66 52 -49 83 -57 139 -35 42 16 148 12 206 -7 38 -13 68 -34 113 -78
94 -94 108 -162 78 -364 -6 -41 -4 -45 41 -93 69 -73 89 -126 89 -229 1 -78
-2 -90 -33 -148 -39 -71 -81 -111 -158 -148 -65 -30 -77 -52 -69 -116 22 -162
-78 -338 -231 -411 -63 -30 -76 -32 -173 -32 -99 0 -110 2 -172 33 -82 40
-149 105 -188 181 -15 32 -35 63 -44 70 -8 7 -45 17 -83 22 -168 23 -273 129
-293 296 -5 35 -14 71 -21 79 -7 9 -38 29 -70 44 -76 39 -146 111 -183 190
-29 60 -31 73 -31 170 0 97 2 110 32 173 73 154 249 253 411 231 65 -8 87 5
117 71 39 89 125 161 220 186 50 13 157 4 207 -19z m-1453 -147 c114 -19 216
-52 325 -106 44 -23 83 -43 85 -45 2 -2 -3 -12 -11 -21 -56 -64 -98 -201 -98
-321 0 -129 30 -224 103 -331 l30 -44 -18 -76 c-26 -113 -63 -217 -103 -296
-28 -55 -69 -103 -185 -222 -144 -147 -149 -153 -145 -190 l3 -38 -305 -37
c-373 -45 -364 -45 -356 -15 4 12 9 61 13 109 18 251 -99 514 -300 675 -34 27
-37 34 -28 51 17 33 13 71 -11 95 -13 13 -69 38 -125 57 -118 40 -114 27 -51
157 115 233 337 437 582 532 100 39 228 71 285 71 37 0 41 -12 48 -132 l6 -98
80 0 80 0 -6 98 c-3 53 -9 107 -13 120 -8 27 -8 27 115 7z m-1785 -832 c3 -21
6 -55 6 -75 l0 -38 81 0 82 0 -7 76 -6 77 53 -7 c67 -8 255 -55 285 -70 21
-11 17 -14 -59 -51 -113 -55 -132 -90 -89 -161 l21 -32 -141 46 -140 47 -140
-47 -141 -46 21 32 c43 71 24 106 -89 161 -44 21 -78 42 -73 46 15 14 259 75
313 78 11 1 18 -11 23 -36z m2382 -161 c5 -4 16 -33 23 -64 40 -182 192 -333
372 -370 33 -7 61 -18 64 -26 3 -8 4 -16 3 -17 -2 -1 -50 -17 -108 -35 -58
-17 -139 -47 -180 -66 -69 -31 -96 -36 -324 -64 -137 -16 -253 -27 -257 -24
-19 12 -5 31 109 148 104 107 123 132 164 216 43 90 73 171 98 268 11 42 16
48 36 34z m-2775 -43 l41 -20 -18 -27 c-9 -15 -37 -56 -61 -92 -25 -38 -43
-76 -43 -93 0 -34 40 -77 72 -77 12 0 127 35 255 77 l233 78 233 -78 c128 -42
243 -77 255 -77 32 0 72 43 72 77 0 17 -22 62 -60 117 -32 49 -57 93 -55 96 2
4 22 15 43 24 l40 18 48 -28 c65 -37 171 -145 212 -216 18 -31 45 -89 60 -130
23 -64 26 -88 26 -198 0 -82 -5 -139 -15 -165 l-14 -40 -150 -17 c-238 -27
-284 -37 -352 -69 -116 -55 -218 -180 -252 -307 l-12 -42 -185 0 c-266 0 -370
25 -509 124 -198 142 -299 397 -251 636 33 163 122 302 255 398 40 28 77 52
82 52 6 0 28 -9 50 -21z m3405 -610 c97 -67 200 -98 324 -100 l85 -1 -110 -29
c-60 -16 -118 -29 -128 -29 -11 0 -44 22 -74 49 -30 27 -90 67 -133 89 -76 39
-80 47 -27 51 10 0 38 -13 63 -30z m-184 -132 c176 -64 293 -185 354 -367 23
-68 26 -232 5 -305 -36 -129 -140 -268 -246 -331 -54 -31 -166 -74 -195 -74
-19 0 -20 8 -20 115 l0 115 -80 0 -80 0 0 -116 0 -117 -37 6 c-21 4 -119 16
-218 27 -99 12 -190 23 -202 26 -23 4 -23 5 -23 209 l0 205 -80 0 -80 0 0
-195 c0 -134 -3 -195 -11 -195 -6 0 -199 22 -429 50 -230 27 -423 50 -429 50
-8 0 -11 58 -11 185 l0 185 -80 0 -80 0 0 -175 0 -174 -27 4 c-16 3 -91 12
-167 20 -121 14 -148 20 -199 47 -64 35 -105 78 -139 148 -17 36 -22 63 -22
130 0 100 24 160 89 225 63 63 115 82 272 100 76 9 258 31 406 49 l267 32 0
-163 0 -163 80 0 80 0 0 173 0 172 323 38 c177 21 339 41 360 44 l37 6 0 -177
0 -176 80 0 80 0 0 184 0 185 43 6 c23 3 69 10 102 15 91 13 202 4 277 -23z
m902 -114 c9 -26 16 -48 16 -50 0 -1 -63 -34 -140 -73 -76 -38 -144 -78 -150
-89 -17 -33 -11 -71 15 -96 l24 -25 256 0 255 0 0 -80 0 -80 -255 0 -256 0
-24 -25 c-26 -25 -32 -63 -15 -96 6 -11 74 -51 150 -89 77 -39 140 -72 140
-73 0 -13 -33 -97 -38 -97 -30 -1 -431 107 -428 115 104 229 112 423 27 626
-17 40 -30 73 -28 74 6 5 404 103 419 104 11 1 21 -14 32 -46z"/>
<path d="M1680 2800 l0 -80 80 0 80 0 0 80 0 80 -80 0 -80 0 0 -80z"/>
<path d="M2000 2800 l0 -80 80 0 80 0 0 80 0 80 -80 0 -80 0 0 -80z"/>
<path d="M2000 2480 l0 -80 80 0 80 0 0 80 0 80 -80 0 -80 0 0 -80z"/>
<path d="M3520 1040 l0 -80 80 0 80 0 0 80 0 80 -80 0 -80 0 0 -80z"/>
<path d="M2320 960 l0 -80 80 0 80 0 0 80 0 80 -80 0 -80 0 0 -80z"/>
</g>
</svg>
